<?xml version="1.0" standalone="no"?>
<!DOCTYPE svg PUBLIC "-//W3C//DTD SVG 20010904//EN"
 "http://www.w3.org/TR/2001/REC-SVG-20010904/DTD/svg10.dtd">
<svg version="1.0" xmlns="http://www.w3.org/2000/svg"
 width="227.000000pt" height="227.000000pt" viewBox="0 0 227.000000 227.000000"
 preserveAspectRatio="xMidYMid meet">

<g transform="translate(0.000000,227.000000) scale(0.100000,-0.100000)"
fill="#000000" stroke="none">
<path d="M0 1135 l0 -1135 1135 0 1135 0 0 1135 0 1135 -1135 0 -1135 0 0
-1135z m1059 667 c19 -69 24 -102 15 -102 -5 0 -19 -3 -31 -6 -16 -4 -23 -2
-23 7 0 28 -16 40 -44 33 -23 -5 -27 -11 -23 -31 3 -19 -1 -27 -20 -34 -14 -5
-28 -7 -32 -4 -9 5 -36 123 -30 129 2 3 16 7 32 11 23 6 27 4 27 -13 0 -27 13
-34 45 -26 22 6 25 10 20 34 -5 24 -3 29 17 33 13 2 26 5 30 6 4 0 12 -16 17
-37z m179 32 c14 -4 22 -13 20 -22 -2 -13 -14 -16 -51 -13 -29 1 -47 -2 -47
-8 0 -6 18 -11 40 -11 29 0 40 -4 40 -15 0 -11 -12 -15 -47 -16 l-48 -1 65
-13 65 -13 52 39 c47 35 55 38 77 27 28 -12 29 -15 46 -103 l12 -59 20 24 c11
14 29 35 39 48 17 22 19 23 44 6 27 -18 27 -19 -20 -72 l-20 -24 38 -33 c36
-31 42 -55 15 -55 -9 0 -87 60 -126 97 -7 7 -20 13 -27 13 -8 0 -19 9 -25 19
-12 23 -40 34 -90 36 -19 1 -77 6 -127 10 -104 9 -100 3 -87 99 l7 46 56 0
c31 0 66 -3 79 -6z m-399 -177 c1 -31 -3 -39 -25 -49 -23 -11 -34 -8 -90 22
-35 19 -64 38 -64 42 0 5 11 13 24 19 20 9 30 8 53 -8 55 -39 54 -39 47 15 -6
44 -4 51 17 66 24 16 24 16 31 -26 3 -24 7 -60 7 -81z m-156 -65 l48 -48 -21
-19 c-20 -18 -21 -18 -70 30 -47 46 -49 50 -33 67 9 10 19 18 22 18 4 0 28
-22 54 -48z m615 4 c169 -58 284 -179 336 -355 18 -61 21 -193 5 -260 -51
-223 -266 -391 -501 -391 -145 0 -264 50 -366 152 -325 324 -96 876 364 878
70 0 107 -5 162 -24z m437 -61 c43 -61 50 -85 23 -85 -6 0 -16 8 -23 17 -12
16 -16 15 -54 -11 -40 -28 -42 -29 -56 -10 -16 21 -20 44 -7 44 4 0 20 11 37
24 25 20 28 26 16 40 -14 16 -9 46 8 46 5 0 30 -29 56 -65z m-1123 6 c7 -10
23 -21 36 -25 39 -13 20 -56 -25 -56 -31 0 -51 -37 -28 -54 15 -11 15 -14 -2
-35 l-19 -24 -58 37 c-37 24 -54 41 -50 49 25 42 69 104 82 115 23 17 49 15
64 -7z m1203 -138 c3 -15 3 -29 -2 -30 -31 -11 -37 -22 -27 -50 10 -28 15 -30
45 -18 12 4 19 -2 27 -23 10 -30 10 -30 -47 -51 -70 -25 -77 -26 -85 -5 -11
29 -6 42 18 48 23 6 23 8 13 36 -10 26 -16 30 -36 25 -25 -6 -41 7 -41 37 0
11 18 23 58 36 73 26 69 26 77 -5z m-1305 -48 c9 -10 11 -32 7 -67 -5 -41 -3
-54 10 -64 14 -10 15 -16 6 -37 l-11 -25 -61 17 c-33 9 -62 19 -65 22 -6 6 25
114 43 147 14 26 52 30 71 7z"/>
<path d="M1367 1734 c-8 -8 1 -24 14 -24 5 0 9 7 9 15 0 15 -12 20 -23 9z"/>
<path d="M1085 1605 c-5 -2 -28 -6 -49 -10 -29 -5 -36 -9 -25 -16 22 -14 42
-10 69 11 24 19 25 22 5 15z"/>
<path d="M1095 1583 l-30 -16 33 -14 c28 -11 39 -11 90 6 57 19 57 20 29 30
-40 15 -87 13 -122 -6z"/>
<path d="M1216 1553 l-50 -15 59 -23 c53 -22 59 -23 81 -8 27 17 24 27 -14 47
-23 11 -34 11 -76 -1z"/>
<path d="M930 1550 c-9 -6 6 -7 45 -3 33 3 62 7 64 9 10 9 -95 3 -109 -6z"/>
<path d="M1332 1544 c10 -10 20 -16 22 -13 3 3 -5 11 -17 18 -21 13 -21 12 -5
-5z"/>
<path d="M874 1535 c-10 -8 -14 -15 -8 -15 6 0 17 7 24 15 16 19 9 19 -16 0z"/>
<path d="M1382 1534 c10 -10 20 -15 24 -12 3 4 -5 12 -18 18 -22 12 -22 12 -6
-6z"/>
<path d="M961 1528 c-68 -8 -99 -27 -133 -86 l-17 -28 71 -18 c48 -12 73 -15
80 -8 6 6 16 9 22 8 6 -2 8 -1 4 1 -4 3 -3 12 2 21 9 18 40 116 37 117 -1 1
-31 -2 -66 -7z"/>
<path d="M1034 1505 c-23 -55 -17 -58 31 -19 24 21 43 39 42 40 -1 2 -15 5
-30 8 -25 4 -30 1 -43 -29z"/>
<path d="M1209 1480 c28 -22 52 -40 55 -40 2 0 6 9 9 20 4 16 -4 23 -49 40
-30 11 -57 20 -60 20 -3 0 17 -18 45 -40z"/>
<path d="M1069 1473 c-87 -74 -84 -78 62 -76 67 1 124 5 127 7 13 14 -101 106
-131 106 -7 0 -33 -17 -58 -37z"/>
<path d="M1316 1497 c-16 -12 -13 -16 34 -45 28 -18 53 -32 56 -32 3 0 16 -12
30 -27 35 -39 15 -1 -33 62 -42 54 -59 63 -87 42z"/>
<path d="M1417 1462 c21 -27 43 -58 50 -68 11 -18 12 -18 12 1 0 11 -13 33
-29 49 -17 16 -30 33 -30 37 0 5 -9 13 -21 19 -15 8 -10 -2 18 -38z"/>
<path d="M828 1483 c-18 -21 -31 -43 -25 -43 2 0 13 14 25 30 25 33 24 41 0
13z"/>
<path d="M1276 1448 c-4 -16 2 -30 19 -47 21 -22 26 -23 54 -11 17 7 31 16 31
21 0 8 -80 59 -92 59 -3 0 -8 -10 -12 -22z"/>
<path d="M1470 1461 c0 -5 5 -13 10 -16 6 -3 10 -2 10 4 0 5 -4 13 -10 16 -5
3 -10 2 -10 -4z"/>
<path d="M751 1425 c-38 -44 -39 -50 -2 -31 24 13 48 53 37 63 -2 2 -17 -12
-35 -32z"/>
<path d="M1499 1411 c17 -31 33 -37 29 -10 -2 13 -11 25 -21 27 -16 3 -17 1
-8 -17z"/>
<path d="M790 1379 c-6 -10 -10 -26 -10 -37 0 -18 3 -18 65 6 35 14 63 27 61
29 -2 2 -27 7 -55 12 -45 7 -53 6 -61 -10z"/>
<path d="M1370 1390 c-18 -11 -16 -14 44 -34 l50 -16 -29 30 c-31 32 -41 35
-65 20z"/>
<path d="M731 1369 c-32 -20 -61 -71 -61 -109 0 -36 74 32 89 82 7 22 11 42 9
44 -2 2 -19 -6 -37 -17z"/>
<path d="M1043 1383 c-49 -6 -44 -38 15 -96 26 -26 51 -47 55 -47 19 0 147
105 147 120 0 27 -98 38 -217 23z"/>
<path d="M1537 1378 c-7 -19 19 -58 39 -58 16 0 10 15 -19 54 -12 16 -15 17
-20 4z"/>
<path d="M1270 1364 c0 -9 5 -14 12 -12 18 6 21 28 4 28 -9 0 -16 -7 -16 -16z"/>
<path d="M1502 1360 c0 -14 2 -19 5 -12 2 6 2 18 0 25 -3 6 -5 1 -5 -13z"/>
<path d="M960 1365 c0 -2 9 -9 20 -15 16 -9 20 -8 20 5 0 8 -9 15 -20 15 -11
0 -20 -2 -20 -5z"/>
<path d="M1330 1364 c0 -5 10 -22 23 -37 20 -25 26 -27 65 -21 23 3 42 10 42
13 0 4 -24 15 -52 26 -29 10 -59 20 -65 23 -7 2 -13 0 -13 -4z"/>
<path d="M858 1337 c-81 -31 -82 -33 -68 -116 6 -39 16 -71 20 -71 5 0 19 24
33 53 13 28 40 76 60 105 20 28 30 52 24 51 -7 0 -38 -10 -69 -22z"/>
<path d="M927 1318 c-14 -18 -41 -65 -61 -105 l-36 -72 24 -19 c24 -19 25 -19
103 19 43 21 78 42 78 46 -2 42 -32 131 -49 145 -28 24 -31 23 -59 -14z"/>
<path d="M1285 1339 c-4 -5 -4 -21 -1 -35 6 -24 27 -30 60 -18 14 5 13 10 -5
35 -21 30 -43 37 -54 18z"/>
<path d="M1515 1330 c-3 -5 -1 -10 4 -10 6 0 11 5 11 10 0 6 -2 10 -4 10 -3 0
-8 -4 -11 -10z"/>
<path d="M1182 1273 c-35 -25 -61 -48 -58 -50 5 -5 136 35 148 46 11 9 -2 51
-16 51 -6 -1 -39 -22 -74 -47z"/>
<path d="M1465 1305 c-5 -2 -27 -6 -48 -10 l-37 -6 16 -30 16 -31 25 23 c21
20 50 61 41 58 -2 0 -7 -2 -13 -4z"/>
<path d="M1530 1306 c0 -2 7 -9 15 -16 13 -11 14 -10 9 4 -5 14 -24 23 -24 12z"/>
<path d="M1575 1289 c4 -13 11 -26 15 -29 3 -3 10 -14 13 -24 14 -36 16 -10 3
29 -15 43 -44 65 -31 24z"/>
<path d="M1026 1273 c4 -15 12 -41 18 -56 11 -26 12 -27 34 -12 l22 16 -20 27
c-11 14 -30 32 -41 40 -19 13 -19 12 -13 -15z"/>
<path d="M756 1282 c-12 -20 -20 -238 -9 -245 34 -21 69 76 39 105 -9 9 -12
18 -8 20 4 2 2 32 -3 68 -7 41 -14 60 -19 52z"/>
<path d="M1452 1249 c-32 -38 -32 -39 -17 -70 11 -19 20 -28 26 -22 9 9 32
124 26 129 -1 1 -17 -15 -35 -37z"/>
<path d="M1323 1273 c-29 -5 -29 -7 2 -60 29 -49 35 -51 60 -23 17 19 18 22 2
55 -16 35 -21 36 -64 28z"/>
<path d="M1546 1255 c12 -16 31 -55 43 -85 14 -34 20 -44 17 -25 -2 17 -10 44
-17 60 -7 17 -13 34 -13 39 -1 5 -12 16 -26 25 l-25 16 21 -30z"/>
<path d="M693 1236 c-23 -25 -29 -40 -25 -64 4 -28 6 -30 28 -20 16 8 25 22
29 47 4 20 8 44 10 54 5 26 -10 21 -42 -17z"/>
<path d="M1203 1232 l-72 -27 20 -30 c11 -17 31 -51 45 -77 13 -27 28 -48 32
-48 4 0 32 23 64 50 l56 50 -31 55 c-18 30 -34 54 -37 54 -3 0 -37 -12 -77
-27z"/>
<path d="M1497 1226 c-7 -46 -7 -48 12 -36 11 6 12 16 5 42 l-10 33 -7 -39z"/>
<path d="M1528 1235 c2 -14 7 -25 11 -25 3 0 7 -33 9 -72 2 -40 5 -74 8 -77 2
-2 12 4 23 13 16 15 18 23 9 54 -10 36 -55 132 -62 132 -2 0 -1 -11 2 -25z"/>
<path d="M1087 1188 c-22 -8 -26 -14 -21 -31 8 -27 39 -80 71 -125 21 -28 26
-30 38 -18 8 8 20 16 27 19 9 3 3 24 -22 71 -44 85 -57 96 -93 84z"/>
<path d="M1388 1181 c-21 -21 -23 -35 -5 -50 23 -18 50 9 42 42 -8 31 -13 32
-37 8z"/>
<path d="M1498 1170 c-19 -12 -32 -61 -23 -90 4 -13 15 -20 31 -20 23 0 24 3
24 60 0 62 -3 66 -32 50z"/>
<path d="M981 1110 l-55 -49 29 -53 c15 -29 29 -54 30 -56 2 -3 147 48 154 54
2 2 -3 12 -11 21 -9 10 -30 44 -48 76 -17 31 -35 57 -38 57 -4 -1 -32 -23 -61
-50z"/>
<path d="M698 1139 c-22 -12 -23 -37 -2 -89 29 -72 42 -43 26 57 -6 36 -9 40
-24 32z"/>
<path d="M942 1123 c-49 -24 -52 -27 -38 -42 15 -14 20 -12 58 27 24 23 41 42
38 41 -3 0 -29 -12 -58 -26z"/>
<path d="M1307 1099 l-42 -40 58 28 c60 28 67 37 41 47 -9 4 -30 -9 -57 -35z"/>
<path d="M1435 1128 c-30 -16 -31 -18 -15 -28 23 -14 27 -12 32 15 3 14 5 25
4 25 0 0 -10 -6 -21 -12z"/>
<path d="M1631 1114 c0 -11 3 -14 6 -6 3 7 2 16 -1 19 -3 4 -6 -2 -5 -13z"/>
<path d="M820 1106 c0 -20 13 -27 30 -15 13 8 13 10 0 19 -21 14 -30 12 -30
-4z"/>
<path d="M631 1094 c0 -11 3 -14 6 -6 3 7 2 16 -1 19 -3 4 -6 -2 -5 -13z"/>
<path d="M1293 1057 c-45 -23 -91 -49 -103 -57 -21 -15 -21 -15 21 -55 41 -39
41 -39 35 -12 -16 71 -17 83 -2 47 8 -19 15 -44 15 -56 1 -11 13 -31 27 -45
33 -30 82 -30 149 2 50 24 50 24 48 69 -3 64 -12 110 -23 110 -5 0 -18 -20
-28 -44 -26 -57 -92 -160 -99 -153 -3 3 9 26 27 52 17 25 43 71 57 101 24 53
24 56 7 69 -28 21 -41 18 -131 -28z"/>
<path d="M665 1062 c7 -45 32 -96 58 -119 l21 -18 -21 30 c-11 17 -30 55 -42
85 -16 41 -20 47 -16 22z"/>
<path d="M855 1076 c-17 -12 -18 -17 -7 -41 12 -27 13 -27 32 -10 23 21 25 38
7 54 -10 8 -19 7 -32 -3z"/>
<path d="M1573 1057 c-16 -7 -24 -23 -31 -61 -4 -28 -7 -53 -5 -55 4 -6 53 40
63 60 5 9 6 27 2 41 -6 22 -10 24 -29 15z"/>
<path d="M806 1052 c-6 -10 -25 -126 -22 -129 2 -2 17 15 35 37 31 38 31 41
16 70 -16 32 -21 35 -29 22z"/>
<path d="M1491 1018 c5 -18 9 -48 9 -65 0 -54 17 -37 25 23 5 43 3 59 -7 65
-28 18 -37 10 -27 -23z"/>
<path d="M885 1020 c-19 -21 -19 -22 0 -56 17 -32 22 -35 49 -30 16 4 31 8 34
11 6 6 -41 88 -54 92 -6 2 -19 -6 -29 -17z"/>
<path d="M762 1021 c-10 -6 -11 -17 -4 -42 l9 -34 7 39 c8 43 6 48 -12 37z"/>
<path d="M720 993 c0 -5 8 -17 17 -28 14 -18 15 -18 9 -2 -3 10 -6 23 -6 28 0
5 -4 9 -10 9 -5 0 -10 -3 -10 -7z"/>
<path d="M650 983 c0 -4 5 -15 10 -23 8 -13 10 -13 10 2 0 9 -4 20 -10 23 -5
3 -10 3 -10 -2z"/>
<path d="M1058 963 c-45 -17 -65 -30 -62 -39 2 -8 6 -21 9 -29 3 -12 21 -4 75
36 96 69 92 75 -22 32z"/>
<path d="M834 958 c-49 -56 -49 -56 6 -45 27 5 50 12 50 16 0 3 -8 16 -18 29
l-18 23 -20 -23z"/>
<path d="M1568 946 c-34 -30 -68 -88 -68 -116 0 -14 49 11 72 37 14 15 42 103
35 109 -1 1 -19 -13 -39 -30z"/>
<path d="M1082 919 c-83 -58 -93 -83 -34 -93 48 -8 107 -8 166 0 40 6 46 10
46 30 0 20 -73 102 -99 112 -4 1 -39 -21 -79 -49z"/>
<path d="M674 937 c-7 -20 8 -42 24 -36 7 3 6 13 -3 29 -12 23 -14 23 -21 7z"/>
<path d="M930 920 c-12 -7 -9 -15 16 -46 34 -42 54 -53 54 -30 0 10 -6 13 -17
9 -16 -6 -16 -5 -4 10 30 38 -8 83 -49 57z"/>
<path d="M720 910 c0 -6 7 -10 15 -10 8 0 15 2 15 4 0 2 -7 6 -15 10 -8 3 -15
1 -15 -4z"/>
<path d="M838 903 c-16 -2 -28 -8 -28 -12 0 -9 121 -53 128 -47 2 3 -6 19 -18
35 -21 30 -27 32 -82 24z"/>
<path d="M690 885 c0 -4 7 -20 16 -37 14 -28 17 -29 26 -14 7 13 5 23 -8 37
-16 18 -34 25 -34 14z"/>
<path d="M740 880 c0 -5 5 -10 10 -10 6 0 10 -10 10 -22 0 -12 3 -19 6 -15 9
9 -5 57 -16 57 -6 0 -10 -4 -10 -10z"/>
<path d="M1445 869 c-22 -10 -49 -21 -60 -24 l-20 -6 20 -9 c11 -5 37 -9 57
-9 32 -1 39 3 44 24 10 38 2 43 -41 24z"/>
<path d="M826 848 c26 -28 50 -39 68 -32 26 10 18 18 -35 36 l-51 17 18 -21z"/>
<path d="M1270 855 c0 -9 9 -15 21 -15 18 0 19 2 9 15 -7 8 -16 15 -21 15 -5
0 -9 -7 -9 -15z"/>
<path d="M790 823 c0 -20 83 -123 100 -123 4 0 -8 17 -27 38 -19 20 -43 53
-53 72 -16 29 -19 31 -20 13z"/>
<path d="M815 829 c5 -8 28 -40 52 -71 44 -58 70 -71 92 -45 8 11 0 21 -38 45
-27 18 -54 32 -60 32 -7 0 -10 3 -8 8 3 4 -7 16 -21 26 -15 12 -22 14 -17 5z"/>
<path d="M740 812 c0 -12 7 -25 15 -29 27 -10 30 6 7 30 l-22 21 0 -22z"/>
<path d="M918 817 c-16 -6 -28 -13 -28 -16 0 -6 83 -61 92 -61 3 0 8 10 11 22
4 15 -1 30 -15 45 -24 25 -22 25 -60 10z"/>
<path d="M1307 824 c-10 -10 -26 -11 -180 -13 -90 -1 -118 -4 -115 -13 3 -7
32 -35 66 -61 l62 -49 56 43 c30 23 59 50 65 61 23 43 25 13 4 -49 -13 -37
-23 -68 -22 -69 1 -1 31 2 67 7 60 8 68 12 108 55 23 25 42 49 42 53 0 4 -21
13 -47 20 -79 20 -98 23 -106 15z"/>
<path d="M1520 814 c-21 -11 -46 -51 -37 -60 2 -2 19 12 37 31 37 39 37 48 0
29z"/>
<path d="M780 761 c0 -5 5 -13 10 -16 6 -3 10 -2 10 4 0 5 -4 13 -10 16 -5 3
-10 2 -10 -4z"/>
<path d="M1003 755 c-3 -9 -2 -20 3 -24 12 -11 96 -43 100 -38 2 2 -19 20 -46
40 -42 31 -51 35 -57 22z"/>
<path d="M1446 745 c-9 -14 -13 -25 -8 -25 5 0 14 11 20 25 6 14 10 25 8 25
-2 0 -11 -11 -20 -25z"/>
<path d="M1201 721 l-43 -38 31 -5 c33 -5 40 1 61 56 13 35 3 32 -49 -13z"/>
<path d="M962 700 l-23 -19 32 -20 c29 -18 35 -18 78 -5 25 7 48 14 51 14 3 1
-22 12 -54 25 -33 14 -60 25 -60 25 -1 -1 -11 -9 -24 -20z"/>
<path d="M861 687 c2 -1 13 -9 24 -17 19 -14 19 -14 6 3 -7 9 -18 17 -24 17
-6 0 -8 -1 -6 -3z"/>
<path d="M1379 673 c-13 -15 -12 -15 9 -4 23 12 28 21 13 21 -5 0 -15 -7 -22
-17z"/>
<path d="M911 677 c2 -1 13 -9 24 -17 19 -14 19 -14 6 3 -7 9 -18 17 -24 17
-6 0 -8 -1 -6 -3z"/>
<path d="M1075 650 l-50 -18 28 -11 c40 -15 83 -14 119 5 62 32 -19 52 -97 24z"/>
<path d="M1280 660 l-45 -7 45 -1 c25 -1 52 3 60 8 18 11 13 11 -60 0z"/>
<path d="M1190 619 c-21 -17 -22 -19 -5 -15 11 3 38 8 60 12 32 6 36 9 20 15
-32 12 -48 10 -75 -12z"/>
<path d="M542 1480 c-17 -27 -5 -47 14 -23 15 20 18 43 6 43 -4 0 -13 -9 -20
-20z"/>
<path d="M454 1286 c-8 -32 6 -58 17 -30 11 28 11 54 -1 54 -5 0 -12 -11 -16
-24z"/>
</g>
</svg>
